# xmcd CD database file
#
# Track frame offsets:
#	150
#	31457
#	51965
#	89680
#
# Disc length: 1831 seconds
#
# Revision: 0
# Processed by: cddbd v1.5.1PL0 Copyright (c) Steve Scherf et al.
# Submitted via: CDex 1.50
#
DISCID=31072504
DTITLE=Cliffort Brown - Max Roach Quintet - Live at Newport
DYEAR=1955
DGENRE=Jazz
TTITLE0=Daahoud
TTITLE1=Ghost of a Chance
TTITLE2=Jacqui
TTITLE3=I Get A Kick Out Of You
EXTD=YEAR: 1955
EXTT0=
EXTT1=
EXTT2=
EXTT3=
PLAYORDER=
